<svg width="243" height="134" viewBox="0 0 243 134" fill="none" xmlns="http://www.w3.org/2000/svg">
<rect width="243" height="134" fill="#788C6E"/>
<path d="M63.2053 76.1129H78.8471C77.6314 81.9194 72.8497 85.629 66.5281 85.629C57.2889 85.629 52.0209 78.371 52.0209 67.8064C52.0209 57.0806 57.37 49.9839 66.366 49.9839C72.3634 49.9839 76.821 53.2903 77.7125 58.5323H91.9765C90.4367 46.4355 80.7112 38.6129 66.366 38.6129C48.6981 38.6129 38 50.2258 38 67.8064C38 85.0645 48.0497 96.9193 64.2589 96.9193C73.336 96.9193 78.9281 92.9677 82.0079 87.4032H82.4131L83.6288 96.0323H92.0576V66.0323H63.2053V76.1129Z" fill="#141414"/>
<path d="M141.009 74.3387C141.009 60.629 133.634 50.5484 118.803 50.5484C104.458 50.5484 95.5425 59.8226 95.5425 73.7742C95.5425 88.129 104.863 97 118.884 97C127.718 97 138.983 93.129 140.604 81.3548H127.475C126.745 85.0645 123.341 87.3226 118.884 87.3226C112.481 87.3226 109.563 82.5645 108.996 76.1935H141.009V74.3387ZM118.884 60.1452C124.071 60.1452 126.907 63.2903 127.637 69.0161H109.32C110.455 63.2097 113.697 60.1452 118.884 60.1452Z" fill="#141414"/>
<path d="M171.424 50.5484C164.778 50.5484 159.429 54.0968 157.565 60.7097H157.241C157.484 57.7258 157.727 55.3871 157.727 52.8065V37H144.679V96.0323H157.727V72.1613C157.727 64.9032 160.969 60.7903 166.399 60.7903C170.857 60.7903 173.775 63.6129 173.775 69.4194V96.0323H186.742V66.9194C186.742 56.7581 180.42 50.5484 171.424 50.5484Z" fill="#141414"/>
<path d="M191.952 96.0323H205V37H191.952V96.0323Z" fill="#141414"/>
</svg>
